<svg width="117" height="24" viewBox="0 0 117 24" fill="none" xmlns="http://www.w3.org/2000/svg">
<path d="M23.4599 3.70522C23.1806 3.42593 22.9014 3.14664 22.6221 2.86735C21.7842 1.97363 20.8905 1.07992 19.7733 0.52134C18.4886 -0.14895 17.0922 0.0186178 15.6957 0.0186178C13.5732 0.0186178 8.26669 0.0186178 5.13867 0.0186178L7.26126 2.86735C11.1154 2.86735 17.148 2.86735 19.9409 2.86735C21.1139 2.86735 22.1194 3.09078 23.0689 3.70522C23.2365 3.76107 23.4041 3.76107 23.4599 3.70522Z" fill="#2A47E6"/>
<path d="M25.8065 8.28553C25.5272 8.00624 25.2479 7.72696 24.9686 7.44767C24.1307 6.55395 23.237 5.66023 22.1199 5.10166C20.8351 4.43137 19.4387 4.59894 18.0423 4.59894C16.199 4.59894 11.7862 4.59894 8.6582 4.59894L10.7808 7.44767C14.5791 7.44767 19.7738 7.44767 22.3433 7.44767C23.5163 7.44767 24.5217 7.6711 25.4713 8.28553C25.583 8.34139 25.6947 8.34139 25.8065 8.28553Z" fill="#2A47E6"/>
<path d="M28.4307 12.754C28.1514 12.4748 27.8721 12.1955 27.5928 11.9162C26.755 11.0225 25.8613 10.1287 24.7441 9.57016C23.4594 8.89987 22.0629 9.06745 20.6665 9.06745C18.9349 9.06745 15.1366 9.06745 12.0645 9.06745L14.187 11.9162C17.8736 11.9162 22.5657 11.9162 24.9117 11.9162C26.0847 11.9162 27.0901 12.1396 28.0397 12.754C28.2073 12.8099 28.319 12.8658 28.4307 12.754Z" fill="#2A47E6"/>
<path d="M4.91602 20.2948C5.1953 20.5741 5.47459 20.8534 5.75388 21.1327C6.59174 22.0264 7.48546 22.9201 8.6026 23.4787C9.88733 24.149 11.2838 23.9814 12.6802 23.9814H23.2373L21.1147 21.1327C17.2605 21.1327 11.2279 21.1327 8.43504 21.1327C7.26203 21.1327 6.25659 20.9093 5.30702 20.2948C5.13944 20.239 5.02773 20.239 4.91602 20.2948Z" fill="#2A47E6"/>
<path d="M2.56836 15.7145C2.84765 15.9938 3.12693 16.2731 3.40622 16.5524C4.24408 17.4461 5.1378 18.3398 6.25495 18.8984C7.53967 19.5687 8.93611 19.4011 10.3325 19.4011H19.7166L17.594 16.5524C13.7957 16.5524 8.60097 16.5524 6.03152 16.5524C4.85851 16.5524 3.85308 16.3289 2.9035 15.7145C2.79178 15.6586 2.68007 15.6586 2.56836 15.7145Z" fill="#2A47E6"/>
<path d="M0 11.1901C0.279287 11.4694 0.558575 11.7487 0.837862 12.0279C1.67572 12.9217 2.56945 13.8154 3.6866 14.374C4.97132 15.0443 6.36775 14.8767 7.76419 14.8767H16.3662L14.2437 12.0279C10.5571 12.0279 5.86504 12.0279 3.51902 12.0279C2.34602 12.0279 1.34058 11.8045 0.391001 11.1901C0.223428 11.1342 0.111715 11.1342 0 11.1901Z" fill="#2A47E6"/>
<path d="M37.8663 4.95455H41.0907L45.4089 15.4943H45.5794L49.8976 4.95455H53.122V19.5H50.5936V9.5071H50.4586L46.4387 19.4574H44.5495L40.5297 9.4858H40.3947V19.5H37.8663V4.95455ZM60.7072 19.7131C59.6135 19.7131 58.6689 19.4858 57.8734 19.0312C57.0827 18.572 56.4743 17.9233 56.0481 17.0852C55.622 16.2424 55.4089 15.2505 55.4089 14.1094C55.4089 12.9872 55.622 12.0024 56.0481 11.1548C56.479 10.3026 57.0803 9.63968 57.8521 9.16619C58.6239 8.68797 59.5306 8.44886 60.5723 8.44886C61.2446 8.44886 61.8791 8.55777 62.4757 8.77557C63.077 8.98864 63.6073 9.32008 64.0666 9.76989C64.5306 10.2197 64.8952 10.7926 65.1603 11.4886C65.4255 12.1799 65.5581 13.0038 65.5581 13.9602V14.7486H56.6163V13.0156H63.0936C63.0888 12.5232 62.9823 12.0852 62.774 11.7017C62.5656 11.3134 62.2744 11.008 61.9004 10.7855C61.5311 10.563 61.1002 10.4517 60.6078 10.4517C60.0822 10.4517 59.6206 10.5795 59.2228 10.8352C58.8251 11.0862 58.515 11.4176 58.2924 11.8295C58.0746 12.2367 57.9634 12.6842 57.9586 13.1719V14.6847C57.9586 15.3191 58.0746 15.8636 58.3066 16.3182C58.5386 16.768 58.863 17.1136 59.2797 17.3551C59.6963 17.5919 60.184 17.7102 60.7427 17.7102C61.1168 17.7102 61.4553 17.6581 61.7583 17.554C62.0614 17.4451 62.3242 17.2865 62.5467 17.0781C62.7692 16.8698 62.9373 16.6117 63.051 16.304L65.4515 16.5739C65.3 17.2083 65.0112 17.7623 64.5851 18.2358C64.1636 18.7045 63.6239 19.0691 62.9657 19.3295C62.3076 19.5852 61.5547 19.7131 60.7072 19.7131ZM74.6863 14.9119V8.59091H77.2573V19.5H74.7644V17.5611H74.6507C74.4045 18.1719 73.9997 18.6714 73.4363 19.0597C72.8775 19.4479 72.1886 19.642 71.3695 19.642C70.6545 19.642 70.0224 19.4834 69.4732 19.1662C68.9287 18.8442 68.5025 18.3778 68.1948 17.767C67.887 17.1515 67.7331 16.4081 67.7331 15.5369V8.59091H70.3042V15.1392C70.3042 15.8305 70.4935 16.3797 70.8723 16.7869C71.2511 17.1941 71.7483 17.3977 72.3638 17.3977C72.7426 17.3977 73.1096 17.3054 73.4647 17.1207C73.8198 16.9361 74.111 16.6615 74.3382 16.2969C74.5703 15.9276 74.6863 15.4659 74.6863 14.9119ZM84.9437 19.5H80.0147V4.95455H85.0431C86.4873 4.95455 87.7278 5.24574 88.7647 5.82812C89.8064 6.40578 90.6066 7.23674 91.1653 8.32102C91.724 9.4053 92.0034 10.7027 92.0034 12.2131C92.0034 13.7282 91.7217 15.0303 91.1582 16.1193C90.5995 17.2083 89.7922 18.044 88.7363 18.6264C87.6852 19.2088 86.421 19.5 84.9437 19.5ZM82.6497 17.2202H84.8159C85.8291 17.2202 86.6743 17.0355 87.3514 16.6662C88.0285 16.2921 88.5375 15.7358 88.8784 14.9972C89.2193 14.2538 89.3897 13.3258 89.3897 12.2131C89.3897 11.1004 89.2193 10.1771 88.8784 9.44318C88.5375 8.70455 88.0332 8.15294 87.3656 7.78835C86.7027 7.41903 85.8788 7.23438 84.894 7.23438H82.6497V17.2202ZM94.3933 19.5V8.59091H96.9643V19.5H94.3933ZM95.6859 7.04261C95.2787 7.04261 94.9283 6.90767 94.6348 6.63778C94.3412 6.36316 94.1944 6.03409 94.1944 5.65057C94.1944 5.26231 94.3412 4.93324 94.6348 4.66335C94.9283 4.38873 95.2787 4.25142 95.6859 4.25142C96.0978 4.25142 96.4482 4.38873 96.737 4.66335C97.0306 4.93324 97.1774 5.26231 97.1774 5.65057C97.1774 6.03409 97.0306 6.36316 96.737 6.63778C96.4482 6.90767 96.0978 7.04261 95.6859 7.04261ZM99.6081 19.5V8.59091H102.066V10.4446H102.193C102.421 9.8196 102.797 9.33191 103.323 8.98153C103.848 8.62642 104.476 8.44886 105.205 8.44886C105.943 8.44886 106.566 8.62879 107.073 8.98864C107.584 9.34375 107.944 9.82907 108.152 10.4446H108.266C108.507 9.83854 108.914 9.35559 109.487 8.99574C110.065 8.63116 110.749 8.44886 111.54 8.44886C112.544 8.44886 113.363 8.7661 113.997 9.40057C114.632 10.035 114.949 10.9607 114.949 12.1776V19.5H112.371V12.5753C112.371 11.8982 112.191 11.4034 111.831 11.0909C111.471 10.7737 111.031 10.6151 110.51 10.6151C109.89 10.6151 109.405 10.8092 109.054 11.1974C108.709 11.581 108.536 12.0805 108.536 12.696V19.5H106.014V12.4688C106.014 11.9053 105.844 11.4555 105.503 11.1193C105.167 10.7831 104.727 10.6151 104.182 10.6151C103.813 10.6151 103.477 10.7098 103.173 10.8991C102.87 11.0838 102.629 11.3466 102.449 11.6875C102.269 12.0237 102.179 12.4167 102.179 12.8665V19.5H99.6081Z" fill="#2A47E6"/>
</svg>
